<?xml version="1.0" encoding="utf-8"?>
<!-- Generator: Adobe Illustrator 17.1.0, SVG Export Plug-In . SVG Version: 6.00 Build 0)  -->
<!DOCTYPE svg PUBLIC "-//W3C//DTD SVG 1.1//EN" "http://www.w3.org/Graphics/SVG/1.1/DTD/svg11.dtd">
<svg version="1.1" id="Layer_1" xmlns="http://www.w3.org/2000/svg" xmlns:xlink="http://www.w3.org/1999/xlink" x="0px" y="0px"
	 viewBox="0 0 462.624 659.557" enable-background="new 0 0 462.624 659.557" xml:space="preserve">
<g enable-background="new    ">
	<g>
		<g>
			<rect x="872.495" y="324.138" fill="#4371B8" width="43.422" height="5"/>
			<rect x="872.493" y="333.408" fill="#4371B8" width="43.424" height="5"/>
			<rect x="872.485" y="342.677" fill="#4371B8" width="43.433" height="5"/>
			<rect x="872.487" y="351.947" fill="#4371B8" width="43.431" height="5"/>
		</g>
		<g>
			<defs>
				<rect id="SVGID_1_" x="872.23" y="293.13" width="51.266" height="73.086"/>
			</defs>
			<clipPath id="SVGID_2_">
				<use xlink:href="#SVGID_1_"  overflow="visible"/>
			</clipPath>
			<g clip-path="url(#SVGID_2_)">
				<defs>
					<rect id="SVGID_3_" x="871.495" y="292.343" width="52" height="74"/>
				</defs>
				<clipPath id="SVGID_4_">
					<use xlink:href="#SVGID_3_"  overflow="visible"/>
				</clipPath>
				<path clip-path="url(#SVGID_4_)" fill="#4371B8" d="M928.495,371.216H867.23V288.13h61.266V371.216z M877.23,361.216h41.266
					V298.13H877.23V361.216z"/>
			</g>
		</g>
		<g>
			<defs>
				<rect id="SVGID_5_" x="872.23" y="293.13" width="51.266" height="73.086"/>
			</defs>
			<clipPath id="SVGID_6_">
				<use xlink:href="#SVGID_5_"  overflow="visible"/>
			</clipPath>
			<g clip-path="url(#SVGID_6_)">
				<g enable-background="new    ">
					<g>
						<defs>
							<rect id="SVGID_7_" x="871.495" y="292.343" width="52" height="74"/>
						</defs>
						<clipPath id="SVGID_8_">
							<use xlink:href="#SVGID_7_"  overflow="visible"/>
						</clipPath>
						<g clip-path="url(#SVGID_8_)">
							<defs>
								<rect id="SVGID_9_" x="872.23" y="293.13" width="51.266" height="73.086"/>
							</defs>
							<clipPath id="SVGID_10_">
								<use xlink:href="#SVGID_9_"  overflow="visible"/>
							</clipPath>
							<g clip-path="url(#SVGID_10_)">
								<defs>
									<rect id="SVGID_11_" x="871.495" y="292.343" width="52" height="74"/>
								</defs>
								<clipPath id="SVGID_12_">
									<use xlink:href="#SVGID_11_"  overflow="visible"/>
								</clipPath>
								<path clip-path="url(#SVGID_12_)" fill="#4371B8" d="M928.495,371.216H867.23V288.13h61.266V371.216z M877.23,361.216
									h41.266V298.13H877.23V361.216z"/>
							</g>
						</g>
						<g clip-path="url(#SVGID_8_)">
							<defs>
								<rect id="SVGID_13_" x="890.742" y="274.591" width="51.266" height="73.086"/>
							</defs>
							<clipPath id="SVGID_14_">
								<use xlink:href="#SVGID_13_"  overflow="visible"/>
							</clipPath>
							<g clip-path="url(#SVGID_14_)">
								<defs>
									<rect id="SVGID_15_" x="871.495" y="292.343" width="52" height="74"/>
								</defs>
								<clipPath id="SVGID_16_">
									<use xlink:href="#SVGID_15_"  overflow="visible"/>
								</clipPath>
								<path clip-path="url(#SVGID_16_)" fill="#4371B8" d="M947.008,352.677h-61.266v-83.086h61.266V352.677z M895.742,342.677
									h41.266v-63.086h-41.266V342.677z"/>
							</g>
						</g>
						<g clip-path="url(#SVGID_8_)">
							<defs>
								<rect id="SVGID_17_" x="899.999" y="265.321" width="51.266" height="73.086"/>
							</defs>
							<clipPath id="SVGID_18_">
								<use xlink:href="#SVGID_17_"  overflow="visible"/>
							</clipPath>
							<g clip-path="url(#SVGID_18_)">
								<defs>
									<rect id="SVGID_19_" x="871.495" y="292.343" width="52" height="74"/>
								</defs>
								<clipPath id="SVGID_20_">
									<use xlink:href="#SVGID_19_"  overflow="visible"/>
								</clipPath>
								<path clip-path="url(#SVGID_20_)" fill="#4371B8" d="M956.264,343.408h-61.265v-83.086h61.265V343.408z M904.999,333.408
									h41.265v-63.086h-41.265V333.408z"/>
							</g>
						</g>
						<g clip-path="url(#SVGID_8_)">
							<defs>
								<rect id="SVGID_21_" x="909.255" y="256.052" width="51.266" height="73.086"/>
							</defs>
							<clipPath id="SVGID_22_">
								<use xlink:href="#SVGID_21_"  overflow="visible"/>
							</clipPath>
							<g clip-path="url(#SVGID_22_)">
								<defs>
									<rect id="SVGID_23_" x="871.495" y="292.343" width="52" height="74"/>
								</defs>
								<clipPath id="SVGID_24_">
									<use xlink:href="#SVGID_23_"  overflow="visible"/>
								</clipPath>
								<path clip-path="url(#SVGID_24_)" fill="#4371B8" d="M965.521,334.138h-61.266v-83.086h61.266V334.138z M914.255,324.138
									h41.266v-63.086h-41.266V324.138z"/>
							</g>
						</g>
						<g clip-path="url(#SVGID_8_)">
							<defs>
								<rect id="SVGID_25_" x="881.486" y="283.86" width="51.266" height="73.086"/>
							</defs>
							<clipPath id="SVGID_26_">
								<use xlink:href="#SVGID_25_"  overflow="visible"/>
							</clipPath>
							<g clip-path="url(#SVGID_26_)">
								<defs>
									<rect id="SVGID_27_" x="871.495" y="292.343" width="52" height="74"/>
								</defs>
								<clipPath id="SVGID_28_">
									<use xlink:href="#SVGID_27_"  overflow="visible"/>
								</clipPath>
								<path clip-path="url(#SVGID_28_)" fill="#4371B8" d="M937.751,361.947h-61.265V278.86h61.265V361.947z M886.486,351.947
									h41.265V288.86h-41.265V351.947z"/>
							</g>
						</g>
					</g>
				</g>
			</g>
		</g>
	</g>
</g>
<g>
	<rect x="958.364" y="333.397" fill="#ED1C24" width="51.248" height="5.007"/>
	<g>
		<rect x="958.364" y="293.13" fill="#ED1C24" width="5.007" height="73.086"/>
		<rect x="967.62" y="293.13" fill="#ED1C24" width="5.007" height="61.312"/>
		<rect x="976.875" y="293.13" fill="#ED1C24" width="5.007" height="50.865"/>
		<rect x="986.131" y="293.13" fill="#ED1C24" width="5.007" height="42.771"/>
		<rect x="995.387" y="293.13" fill="#ED1C24" width="5.007" height="33.5"/>
		<rect x="958.364" y="293.153" fill="#ED1C24" width="51.248" height="5.007"/>
		<rect x="958.364" y="324.126" fill="#ED1C24" width="51.248" height="5.007"/>
		<rect x="958.364" y="342.668" fill="#ED1C24" width="51.248" height="5.007"/>
		<rect x="958.364" y="351.939" fill="#ED1C24" width="51.248" height="5.007"/>
		<rect x="958.364" y="361.209" fill="#ED1C24" width="51.248" height="5.007"/>
		<rect x="1004.605" y="293.177" fill="#ED1C24" width="5.007" height="73.04"/>
	</g>
</g>
<path d="M462.624,45.197V0H379.41v-0.212h-45.197V0h-38.356v-0.212H250.66V0h-38.356v-0.212h-45.198V0h-38.355v-0.212H83.553V0
	H45.197v-0.212H-0.001v659.769H0h45.197h372.229h45.197h0.001V614.36h-0.001v-38.492h0.001v-45.197h-0.001v-38.492h0.001v-45.197
	h-0.001v-38.492h0.001v-45.197h-0.001v-38.491h0.001v-45.198h-0.001L462.624,45.197L462.624,45.197z M334.213,45.197v234.405
	h-38.356V45.197H334.213z M250.66,45.197v234.405h-38.356V45.197H250.66z M212.304,363.292v-38.491h38.356v38.491H212.304z
	 M128.751,446.981v-38.492h38.355v38.492H128.751z M45.197,530.671v-38.492h38.356v38.492H45.197z M45.197,446.981v-38.492h38.356
	v38.492H45.197z M45.197,363.292v-38.491h38.356v38.491H45.197z M128.751,363.292v-38.491h38.355v38.491H128.751z M167.106,45.197
	v234.405h-38.355V45.197H167.106z M83.553,45.197v234.405H45.197V45.197H83.553z M417.426,614.36H45.197v-38.492h372.229V614.36z
	 M417.426,530.671H128.751v-38.492h288.675V530.671z M417.426,446.981H212.304v-38.492h205.122V446.981z M417.426,363.292H295.857
	v-38.491h121.569V363.292z M417.426,279.603H379.41V45.197h38.015V279.603z"/>
</svg>
