<?xml version="1.0" encoding="UTF-8" standalone="no"?>
<svg width="59px" height="84px" viewBox="0 0 59 84" version="1.1" xmlns="http://www.w3.org/2000/svg" xmlns:xlink="http://www.w3.org/1999/xlink" xmlns:sketch="http://www.bohemiancoding.com/sketch/ns">
    <!-- Generator: Sketch 3.5.1 (25234) - http://www.bohemiancoding.com/sketch -->
    <title>Group 4</title>
    <desc>Created with Sketch.</desc>
    <defs></defs>
    <g id="Page-1" stroke="none" stroke-width="1" fill="none" fill-rule="evenodd" sketch:type="MSPage">
        <g id="ftl_desktop__back_5_start" sketch:type="MSArtboardGroup" transform="translate(-891.000000, -298.000000)" fill="#0075FF">
            <g id="Group-4" sketch:type="MSLayerGroup" transform="translate(891.000000, 298.000000)">
                <path d="M0,0 L0,5.7044554 L0,35.693067 L0,41.3963733 L0,46.3412306 L0,52.045686 L0,56.9893941 L0,62.6927003 L0,67.6364085 L0,73.3408639 L0,78.284572 L0,83.9878782 L5.77274864,83.9878782 L53.2275966,83.9878782 L59.0003453,83.9878782 L59.0003453,0 L0,0 Z M48.2961317,5.7044554 L53.2275966,5.7044554 L53.2275966,35.693067 L48.2961317,35.693067 L48.2961317,5.7044554 Z M37.6517633,5.7044554 L42.584379,5.7044554 L42.584379,35.693067 L37.6517633,35.693067 L37.6517633,5.7044554 Z M27.048826,5.7044554 L31.9400106,5.7044554 L31.9400106,35.693067 L27.048826,35.693067 L27.048826,5.7044554 Z M16.3641772,5.7044554 L21.3359225,5.7044554 L21.3359225,35.693067 L16.3641772,35.693067 L16.3641772,5.7044554 Z M5.77274864,5.7044554 L10.6524245,5.7044554 L10.6524245,35.693067 L5.77274864,35.693067 L5.77274864,5.7044554 Z M37.6517633,41.3963733 L53.2275966,41.3963733 L53.2275966,46.3412306 L37.6517633,46.3412306 L37.6517633,41.3963733 Z M27.048826,41.3963733 L31.9400106,41.3963733 L31.9400106,46.3412306 L27.048826,46.3412306 L27.048826,41.3963733 Z M16.3641772,41.3963733 L21.3359225,41.3963733 L21.3359225,46.3412306 L16.3641772,46.3412306 L16.3641772,41.3963733 Z M5.77274864,41.3963733 L10.6524245,41.3963733 L10.6524245,46.3412306 L5.77274864,46.3412306 L5.77274864,41.3963733 Z M27.048826,52.045686 L53.2275966,52.045686 L53.2275966,56.9893941 L27.048826,56.9893941 L27.048826,52.045686 Z M16.3641772,52.045686 L21.3359225,52.045686 L21.3359225,56.9893941 L16.3641772,56.9893941 L16.3641772,52.045686 Z M5.77274864,52.045686 L10.6524245,52.045686 L10.6524245,56.9893941 L5.77274864,56.9893941 L5.77274864,52.045686 Z M16.3641772,62.6927003 L53.2275966,62.6927003 L53.2275966,67.6364085 L16.3641772,67.6364085 L16.3641772,62.6927003 Z M5.77274864,62.6927003 L10.6524245,62.6927003 L10.6524245,67.6364085 L5.77274864,67.6364085 L5.77274864,62.6927003 Z M5.77274864,73.3408639 L53.2275966,73.3408639 L53.2275966,78.284572 L5.77274864,78.284572 L5.77274864,73.3408639 Z" id="Page-1" sketch:type="MSShapeGroup"></path>
            </g>
        </g>
    </g>
</svg>