<?xml version="1.0" encoding="UTF-8" standalone="no"?>
<svg width="209px" height="298px" viewBox="0 0 209 298" version="1.1" xmlns="http://www.w3.org/2000/svg" xmlns:xlink="http://www.w3.org/1999/xlink" xmlns:sketch="http://www.bohemiancoding.com/sketch/ns">
    <!-- Generator: Sketch 3.5.1 (25234) - http://www.bohemiancoding.com/sketch -->
    <title>Group 4</title>
    <desc>Created with Sketch.</desc>
    <defs></defs>
    <g id="Page-1" stroke="none" stroke-width="1" fill="none" fill-rule="evenodd" sketch:type="MSPage">
        <g id="ftl_desktop__back_5_start" sketch:type="MSArtboardGroup" transform="translate(-741.000000, -84.000000)" fill="#0075FF">
            <g id="Group-4" sketch:type="MSLayerGroup" transform="translate(741.000000, 84.000000)">
                <path d="M0,0 L0,20.2372346 L0,126.625405 L0,146.858562 L0,164.401032 L0,184.638267 L0,202.17666 L0,222.409818 L0,239.948211 L0,260.185446 L0,277.723839 L0,297.956997 L20.4492282,297.956997 L188.551995,297.956997 L209.001223,297.956997 L209.001223,0 L0,0 Z M171.082907,20.2372346 L188.551995,20.2372346 L188.551995,126.625405 L171.082907,126.625405 L171.082907,20.2372346 Z M133.376585,20.2372346 L150.849749,20.2372346 L150.849749,126.625405 L133.376585,126.625405 L133.376585,20.2372346 Z M95.8170278,20.2372346 L113.143427,20.2372346 L113.143427,126.625405 L95.8170278,126.625405 L95.8170278,20.2372346 Z M57.9680176,20.2372346 L75.5797931,20.2372346 L75.5797931,126.625405 L57.9680176,126.625405 L57.9680176,20.2372346 Z M20.4492282,20.2372346 L37.7348598,20.2372346 L37.7348598,126.625405 L20.4492282,126.625405 L20.4492282,20.2372346 Z M133.376585,146.858562 L188.551995,146.858562 L188.551995,164.401032 L133.376585,164.401032 L133.376585,146.858562 Z M95.8170278,146.858562 L113.143427,146.858562 L113.143427,164.401032 L95.8170278,164.401032 L95.8170278,146.858562 Z M57.9680176,146.858562 L75.5797931,146.858562 L75.5797931,164.401032 L57.9680176,164.401032 L57.9680176,146.858562 Z M20.4492282,146.858562 L37.7348598,146.858562 L37.7348598,164.401032 L20.4492282,164.401032 L20.4492282,146.858562 Z M95.8170278,184.638267 L188.551995,184.638267 L188.551995,202.17666 L95.8170278,202.17666 L95.8170278,184.638267 Z M57.9680176,184.638267 L75.5797931,184.638267 L75.5797931,202.17666 L57.9680176,202.17666 L57.9680176,184.638267 Z M20.4492282,184.638267 L37.7348598,184.638267 L37.7348598,202.17666 L20.4492282,202.17666 L20.4492282,184.638267 Z M57.9680176,222.409818 L188.551995,222.409818 L188.551995,239.948211 L57.9680176,239.948211 L57.9680176,222.409818 Z M20.4492282,222.409818 L37.7348598,222.409818 L37.7348598,239.948211 L20.4492282,239.948211 L20.4492282,222.409818 Z M20.4492282,260.185446 L188.551995,260.185446 L188.551995,277.723839 L20.4492282,277.723839 L20.4492282,260.185446 Z" id="Page-1" sketch:type="MSShapeGroup"></path>
            </g>
        </g>
    </g>
</svg>