<?xml version="1.0" encoding="utf-8"?>
<!-- Generator: Adobe Illustrator 17.1.0, SVG Export Plug-In . SVG Version: 6.00 Build 0)  -->
<!DOCTYPE svg PUBLIC "-//W3C//DTD SVG 1.1//EN" "http://www.w3.org/Graphics/SVG/1.1/DTD/svg11.dtd">
<svg version="1.1" id="Layer_1" xmlns="http://www.w3.org/2000/svg" xmlns:xlink="http://www.w3.org/1999/xlink" x="0px" y="0px"
	 viewBox="0 0 70.119 99.968" enable-background="new 0 0 70.119 99.968" xml:space="preserve">
<g enable-background="new    ">
	<g>
		<g>
			<rect x="676.243" y="44.433" fill="#4371B8" width="43.422" height="5"/>
			<rect x="676.241" y="53.703" fill="#4371B8" width="43.424" height="5"/>
			<rect x="676.233" y="62.972" fill="#4371B8" width="43.433" height="5"/>
			<rect x="676.235" y="72.242" fill="#4371B8" width="43.431" height="5"/>
		</g>
		<g>
			<defs>
				<rect id="SVGID_1_" x="675.978" y="13.425" width="51.266" height="73.086"/>
			</defs>
			<clipPath id="SVGID_2_">
				<use xlink:href="#SVGID_1_"  overflow="visible"/>
			</clipPath>
			<g clip-path="url(#SVGID_2_)">
				<defs>
					<rect id="SVGID_3_" x="675.243" y="12.638" width="52" height="74"/>
				</defs>
				<clipPath id="SVGID_4_">
					<use xlink:href="#SVGID_3_"  overflow="visible"/>
				</clipPath>
				<path clip-path="url(#SVGID_4_)" fill="#4371B8" d="M732.243,91.511h-61.266V8.425h61.266V91.511z M680.978,81.511h41.266
					V18.425h-41.266V81.511z"/>
			</g>
		</g>
		<g>
			<defs>
				<rect id="SVGID_5_" x="675.978" y="13.425" width="51.266" height="73.086"/>
			</defs>
			<clipPath id="SVGID_6_">
				<use xlink:href="#SVGID_5_"  overflow="visible"/>
			</clipPath>
			<g clip-path="url(#SVGID_6_)">
				<g enable-background="new    ">
					<g>
						<defs>
							<rect id="SVGID_7_" x="675.243" y="12.638" width="52" height="74"/>
						</defs>
						<clipPath id="SVGID_8_">
							<use xlink:href="#SVGID_7_"  overflow="visible"/>
						</clipPath>
						<g clip-path="url(#SVGID_8_)">
							<defs>
								<rect id="SVGID_9_" x="675.978" y="13.425" width="51.266" height="73.086"/>
							</defs>
							<clipPath id="SVGID_10_">
								<use xlink:href="#SVGID_9_"  overflow="visible"/>
							</clipPath>
							<g clip-path="url(#SVGID_10_)">
								<defs>
									<rect id="SVGID_11_" x="675.243" y="12.638" width="52" height="74"/>
								</defs>
								<clipPath id="SVGID_12_">
									<use xlink:href="#SVGID_11_"  overflow="visible"/>
								</clipPath>
								<path clip-path="url(#SVGID_12_)" fill="#4371B8" d="M732.243,91.511h-61.266V8.425h61.266V91.511z M680.978,81.511h41.266
									V18.425h-41.266V81.511z"/>
							</g>
						</g>
						<g clip-path="url(#SVGID_8_)">
							<defs>
								<rect id="SVGID_13_" x="694.49" y="-5.114" width="51.266" height="73.086"/>
							</defs>
							<clipPath id="SVGID_14_">
								<use xlink:href="#SVGID_13_"  overflow="visible"/>
							</clipPath>
							<g clip-path="url(#SVGID_14_)">
								<defs>
									<rect id="SVGID_15_" x="675.243" y="12.638" width="52" height="74"/>
								</defs>
								<clipPath id="SVGID_16_">
									<use xlink:href="#SVGID_15_"  overflow="visible"/>
								</clipPath>
								<path clip-path="url(#SVGID_16_)" fill="#4371B8" d="M750.756,72.972H689.49v-83.086h61.266V72.972z M699.49,62.972h41.266
									V-0.114H699.49V62.972z"/>
							</g>
						</g>
						<g clip-path="url(#SVGID_8_)">
							<defs>
								<rect id="SVGID_17_" x="703.747" y="-14.384" width="51.266" height="73.086"/>
							</defs>
							<clipPath id="SVGID_18_">
								<use xlink:href="#SVGID_17_"  overflow="visible"/>
							</clipPath>
							<g clip-path="url(#SVGID_18_)">
								<defs>
									<rect id="SVGID_19_" x="675.243" y="12.638" width="52" height="74"/>
								</defs>
								<clipPath id="SVGID_20_">
									<use xlink:href="#SVGID_19_"  overflow="visible"/>
								</clipPath>
								<path clip-path="url(#SVGID_20_)" fill="#4371B8" d="M760.012,63.703h-61.265v-83.086h61.265V63.703z M708.747,53.703
									h41.265V-9.384h-41.265V53.703z"/>
							</g>
						</g>
						<g clip-path="url(#SVGID_8_)">
							<defs>
								<rect id="SVGID_21_" x="713.003" y="-23.653" width="51.266" height="73.086"/>
							</defs>
							<clipPath id="SVGID_22_">
								<use xlink:href="#SVGID_21_"  overflow="visible"/>
							</clipPath>
							<g clip-path="url(#SVGID_22_)">
								<defs>
									<rect id="SVGID_23_" x="675.243" y="12.638" width="52" height="74"/>
								</defs>
								<clipPath id="SVGID_24_">
									<use xlink:href="#SVGID_23_"  overflow="visible"/>
								</clipPath>
								<path clip-path="url(#SVGID_24_)" fill="#4371B8" d="M769.269,54.433h-61.266v-83.086h61.266V54.433z M718.003,44.433
									h41.266v-63.086h-41.266V44.433z"/>
							</g>
						</g>
						<g clip-path="url(#SVGID_8_)">
							<defs>
								<rect id="SVGID_25_" x="685.234" y="4.155" width="51.266" height="73.086"/>
							</defs>
							<clipPath id="SVGID_26_">
								<use xlink:href="#SVGID_25_"  overflow="visible"/>
							</clipPath>
							<g clip-path="url(#SVGID_26_)">
								<defs>
									<rect id="SVGID_27_" x="675.243" y="12.638" width="52" height="74"/>
								</defs>
								<clipPath id="SVGID_28_">
									<use xlink:href="#SVGID_27_"  overflow="visible"/>
								</clipPath>
								<path clip-path="url(#SVGID_28_)" fill="#4371B8" d="M741.499,82.242h-61.265V-0.845h61.265V82.242z M690.234,72.242h41.265
									V9.155h-41.265V72.242z"/>
							</g>
						</g>
					</g>
				</g>
			</g>
		</g>
	</g>
</g>
<g>
	<rect x="762.112" y="53.692" fill="#ED1C24" width="51.248" height="5.007"/>
	<g>
		<rect x="762.112" y="13.425" fill="#ED1C24" width="5.007" height="73.086"/>
		<rect x="771.368" y="13.425" fill="#ED1C24" width="5.007" height="61.312"/>
		<rect x="780.623" y="13.425" fill="#ED1C24" width="5.007" height="50.865"/>
		<rect x="789.879" y="13.425" fill="#ED1C24" width="5.007" height="42.771"/>
		<rect x="799.135" y="13.425" fill="#ED1C24" width="5.007" height="33.5"/>
		<rect x="762.112" y="13.448" fill="#ED1C24" width="51.248" height="5.007"/>
		<rect x="762.112" y="44.421" fill="#ED1C24" width="51.248" height="5.007"/>
		<rect x="762.112" y="62.963" fill="#ED1C24" width="51.248" height="5.007"/>
		<rect x="762.112" y="72.234" fill="#ED1C24" width="51.248" height="5.007"/>
		<rect x="762.112" y="81.504" fill="#ED1C24" width="51.248" height="5.007"/>
		<rect x="808.353" y="13.472" fill="#ED1C24" width="5.007" height="73.04"/>
	</g>
</g>
<path d="M70.119,6.85V0H57.507v-0.032h-6.85V0h-5.814v-0.032h-6.85V0h-5.814v-0.032h-6.851V0h-5.813v-0.032h-6.851V0H6.85v-0.032H0
	v100h0h6.85h56.418h6.85h0v-6.85h0v-5.834h0v-6.85h0v-5.834h0v-6.85h0v-5.834h0v-6.85h0v-5.834h0v-6.851h0L70.119,6.85L70.119,6.85z
	 M50.656,6.85v35.528h-5.814V6.85H50.656z M37.992,6.85v35.528h-5.814V6.85H37.992z M32.179,55.064v-5.834h5.814v5.834H32.179z
	 M19.515,67.748v-5.834h5.813v5.834H19.515z M6.85,80.433v-5.834h5.814v5.834H6.85z M6.85,67.748v-5.834h5.814v5.834H6.85z
	 M6.85,55.064v-5.834h5.814v5.834H6.85z M19.515,55.064v-5.834h5.813v5.834H19.515z M25.328,6.85v35.528h-5.813V6.85H25.328z
	 M12.664,6.85v35.528H6.85V6.85H12.664z M63.269,93.117H6.85v-5.834h56.418V93.117z M63.269,80.433H19.515v-5.834h43.754V80.433z
	 M63.269,67.748h-31.09v-5.834h31.09V67.748z M63.269,55.064H44.843v-5.834h18.426V55.064z M63.269,42.379h-5.762V6.85h5.762V42.379
	z"/>
</svg>
