<?xml version="1.0" encoding="utf-8"?>
<svg class="usa-map"
  viewBox="0 0 955 515"
  version="1.1"
  xmlns="http://www.w3.org/2000/svg"
  >
  <g>
    <g class="region new_england">
      <path class="state" state-element title="maine" region="new_england" id="maine" d="M888.162254,95.2129285L888.162254 142.819393 897.709951 152.340686 897.709951 142.819393 907.257647 133.2981 926.353041 114.255514 945.448435 114.255514 954.996132 104.734221 945.448435 104.734221 945.448435 85.6916357 935.900738 76.1703428 935.900738 38.0851714 926.353041 47.6064643 897.709951 76.1703428 897.709951 85.6916357z"/>
      <rect class="state" state-element title="connecticut" region="new_england" id="connecticut" x="849.971466" y="171.383271" width="28.6430906" height="19.0425857"/>
      <path class="state" state-element title="rhode_island" region="new_england" id="rhode_island" d="M878.614557,171.383271L888.162254 171.383271 888.162254 180.904564 878.614557 190.425857z"/>
      <path class="state" state-element title="massachusetts" region="new_england" id="massachusetts" d="M849.971466,152.340686L897.709951 152.340686 888.162254 161.861979 897.709951 171.383271 916.805344 171.383271 907.257647 180.904564 888.162254 180.904564 888.162254 171.383271 849.971466 171.383271z"/>
      <path class="state" state-element title="vermont" region="new_england" id="vermont" d="M849.971466,104.734221L849.971466 152.340686 859.519163 152.340686 859.519163 142.819393 869.06686 133.2981 869.06686 114.255514 878.614557 104.734221z"/>
      <path class="state" state-element title="new_hampshire" region="new_england" id="new_hampshire" d="M888.162254,95.2129285L888.162254 142.819393 897.709951 152.340686 859.519163 152.340686 859.519163 142.819393 869.06686 133.2981 869.06686 114.255514 878.614557 104.734221z"/>
    </g>
    <g class="region mountain">
      <path class="state" state-element title="idaho" region="mountain" id="idaho" d="M143.441898,9.52129285L143.441898 38.0851714 172.084989 66.64905 172.084989 95.2129285 191.180383 123.776807 229.37117 123.776807 229.37117 180.904564 124.346505 180.904564 124.911534 104.524083 134.496527 95.584854 124.346505 85.6916357 124.346505 9.52129285z"/>
      <path class="state" state-element title="arizona" region="mountain" id="arizona" d="M172.084989,304.681371L162.537292 304.681371 162.537292 371.330421 172.084989 380.851714 181.632686 390.373007 210.275776 390.373007 219.823473 399.8943 258.014261 399.8943 258.014261 285.638786 172.084989 285.638786z"/>
      <path class="state" state-element title="utah" region="mountain" id="utah" d="M172.084989,180.904564L172.084989 285.638786 258.014261 285.638786 258.014261 190.425857 229.37117 190.425857 229.37117 180.904564z"/>
      <path class="state" state-element title="new_mexico" region="mountain" id="new_mexico" d="M258.014261,399.8943L277.109654 399.8943 277.109654 390.373007 296.205048 390.373007 353.491229 390.373007 353.491229 285.638786 258.014261 285.638786z"/>
      <rect class="state" state-element title="colorado" region="mountain" id="colorado" title="colorado" id="colorado" x="258.014261" y="199.94715" width="114.572362" height="85.6916357"/>
      <rect class="state" state-element title="wyoming" region="mountain" id="wyoming" title="wyoming" id="wyoming" x="229.37117" y="104.734221" width="114.572362" height="95.2129285"/>
      <path class="state" state-element title="montana" region="mountain" id="montana" d="M343.943532,104.734221L343.943532 9.52129285 143.441898 9.52129285 143.441898 38.0851714 172.084989 66.64905 172.084989 95.2129285 191.180383 123.776807 229.37117 123.776807 229.37117 104.734221z"/>
      <path class="state" state-element title="nevada" region="mountain" id="nevada" d="M172.065049,179.861079L172.065047 304.925333 162.51735 304.925333 162.517352 322.680471 76.5880804 236.988836 76.5880804 179.861079z"></path>
    </g>
    <g class="region west_north_central">
      <path class="state" state-element title="north_dakota" region="west_north_central" id="north_dakota" d="M343.943532,85.6916357L468.063592 85.6916357 468.063592 76.1703428 458.515895 66.64905 458.515895 19.0425857 448.968198 9.52129285 343.943532 9.52129285z"/>
      <path class="state" state-element title="south_dakota" region="west_north_central" id="south_dakota" d="M343.943532,152.340686L448.968198 152.340686 468.063592 171.383271 468.063592 104.734221 458.515895 95.2129285 468.063592 85.6916357 343.943532 85.6916357z"/>
      <path class="state" state-element title="nebraska" region="west_north_central" id="nebraska" d="M372.586623,218.989736L477.611289 218.989736 477.611289 180.904564 448.968198 152.340686 343.943532 152.340686 343.943532 199.94715 372.586623 199.94715z"/>
      <path class="state" state-element title="kansas" region="west_north_central" id="kansas" d="M372.586623,285.638786L496.706682 285.638786 496.706682 238.032321 477.611289 218.989736 372.586623 218.989736z"/>
      <path class="state" state-element title="oklahoma" region="west_north_central" id="oklahoma" d="M353.491229,295.160078L410.77741 295.160078 410.77741 333.24525 429.872804 352.287836 496.706682 352.287836 496.706682 285.638786 353.491229 285.638786z"/>
      <path class="state" state-element title="texas" region="west_south_central" id="texas" d="M353.491229,295.160078L353.491229 390.373007 305.752745 390.373007 353.491229 437.979471 363.038926 437.979471 363.038926 428.458178 382.13432 428.458178 401.229714 447.500764 401.229714 466.54335 439.420501 504.628521 439.420501 485.585936 477.611289 437.979471 506.254379 437.979471 515.802076 428.458178 515.802076 399.8943 506.254379 390.373007 506.254379 361.809128 496.706682 352.287836 429.872804 352.287836 410.77741 333.24525 410.77741 295.160078z"/>
      <path class="state" state-element title="iowa" region="west_north_central" id="iowa" d="M477.611289,209.468443L544.445167 209.468443 553.992863 218.989736 553.992863 199.94715 563.54056 190.425857 563.54056 171.383271 553.992863 161.861979 553.992863 142.819393 468.063592 142.819393 468.063592 171.383271 477.611289 180.904564z"/>
      <path class="state" state-element title="missouri" region="west_north_central" id="missouri" d="M496.706682,295.160078L573.088257 295.160078 563.54056 304.681371 582.635954 304.681371 582.635954 285.638786 582.635954 276.117493 563.54056 257.074907 563.54056 238.032321 553.992863 228.511028 553.992863 218.989736 544.445167 209.468443 477.611289 209.468443 477.611289 218.989736 496.706682 238.032321z"/>
      <path class="state" state-element title="arkansas" region="west_south_central" id="arkansas" d="M506.254379,371.330421L553.992863 371.330421 553.992863 342.766543 573.088257 323.723957 573.088257 314.202664 582.635954 304.681371 563.54056 304.681371 573.088257 295.160078 496.706682 295.160078 496.706682 352.287836 506.254379 361.809128z"/>
      <path class="state" state-element title="louisiana" region="west_south_central" id="louisiana" d="M506.254379,371.330421L506.254379 390.373007 515.802076 399.8943 515.802076 428.458178 506.254379 437.979471 553.992863 437.979471 563.54056 447.500764 592.183651 447.500764 573.088257 428.458178 582.635954 418.936886 582.635954 409.415593 544.445167 409.415593 553.992863 390.373007 553.992863 371.330421z"/>
    </g>
    <g class="region east_north_central">
      <path class="state" state-element title="wisconsin" region="east_north_central" id="wisconsin" d="M468.063592,142.819393L553.992863 142.819393 553.992863 133.2981 525.349773 104.734221 525.349773 95.2129285 534.89747 85.6916357 534.89747 76.1703428 582.635954 28.5638786 525.349773 28.5638786 515.802076 19.0425857 496.706682 19.0425857 496.706682 9.52129285 487.158985 0 487.158985 9.52129285 448.968198 9.52129285 458.515895 19.0425857 458.515895 66.64905 468.063592 76.1703428 468.063592 85.6916357 458.515895 95.2129285 468.063592 104.734221z"/>
      <path class="state" state-element title="illinois" region="east_north_central" id="illinois" d="M611.279045,257.074907L582.635954 285.638786 582.635954 276.117493 563.54056 257.074907 563.54056 238.032321 553.992863 228.511028 553.992863 199.94715 563.54056 190.425857 563.54056 171.383271 553.992863 161.861979 611.279045 161.861979 611.279045 171.383271z"/>
      <path class="state" state-element title="indiana" region="east_north_central" id="indiana" d="M659.017529,180.904564L659.017529 209.468443 659.017529 238.032321 630.374438 266.5962 601.731348 266.5962 611.279045 257.074907 611.279045 180.904564z"/>
      <path class="state" state-element title="michigan" region="east_north_central" id="michigan" d="M659.017529,95.2129285L639.922135 114.255514 639.922135 123.776807 630.374438 133.2981 639.922135 142.819393 639.922135 171.383271 630.374438 180.904564 687.66062 180.904564 687.66062 171.383271 697.208316 161.861979 697.208316 123.776807 687.66062 133.2981 678.112923 123.776807 687.66062 114.255514 668.565226 95.2129285z"/>
      <path class="state" state-element title="ohio" region="east_north_central" id="ohio" d="M659.017529,238.032321L668.565226 238.032321 678.112923 247.553614 697.208316 247.553614 697.208316 257.074907 735.399104 218.989736 735.399104 171.383271 725.851407 180.904564 716.30371 190.425857 697.208316 190.425857 687.66062 180.904564 659.017529 180.904564z"/>
    </g>
    <g class="region east_south_central">
      <path class="state" state-element title="mississippi" region="east_south_central" id="mississippi" d="M582.635954,418.936886L601.731348 418.936886 601.731348 323.723957 573.088257 323.723957 553.992863 342.766543 553.992863 390.373007 544.445167 409.415593 582.635954 409.415593z"/>
      <path class="state" state-element title="alabama" region="east_south_central" id="alabama" d="M601.731348,418.936886L620.826742 418.936886 620.826742 409.415593 668.565226 409.415593 659.017529 399.8943 659.017529 342.766543 649.469832 333.24525 649.469832 323.723957 601.731348 323.723957z"/>
      <path class="state" state-element title="tennessee" region="east_south_central" id="tennessee" d="M582.635954,295.160078L582.635954 304.681371 573.088257 314.202664 573.088257 323.723957 678.112923 323.723957 706.756013 295.160078z"/>
      <path class="state" state-element title="kentucky" region="east_south_central" id="kentucky" d="M697.208316,247.553614L697.208316 266.5962 706.756013 276.117493 687.66062 295.160078 582.635954 295.160078 582.635954 285.638786 601.731348 266.5962 630.374438 266.5962 659.017529 238.032321 668.565226 238.032321 678.112923 247.553614z"/>
    </g>
    <g class="region south_atlantic">
      <path class="state" state-element title="georgia" region="south_atlantic" id="georgia" d="M649.469832,323.723957L668.565226 323.723957 687.66062 323.723957 678.112923 333.24525 687.66062 342.766543 725.851407 380.851714 716.30371 390.373007 716.30371 409.415593 697.208316 409.415593 668.565226 409.415593 659.017529 399.8943 659.017529 371.330421 649.469832 361.809128z"/>
      <path class="state" state-element title="florida" region="south_atlantic" id="florida" d="M620.826742,418.936886L639.922135 418.936886 649.469832 428.458178 663.182525 428.458178 678.112923 428.458178 697.208316 447.500764 697.208316 476.064643 706.756013 485.585936 735.399104 514.149814 735.399104 476.064643 735.399104 447.500764 725.851407 437.979471 716.30371 428.458178 716.30371 409.415593 697.208316 409.415593 668.565226 409.415593 620.826742 409.415593z"/>
      <path class="state" state-element title="south_carolina" region="south_atlantic" id="south_carolina" d="M687.66062,323.723957L735.399104 323.723957 735.399104 333.24525 744.946801 333.24525 764.042194 342.766543 725.851407 380.851714 678.112923 333.24525z"/>
      <path class="state" state-element title="north_carolina" region="south_atlantic" id="north_carolina" d="M706.756013,295.160078L678.112923 323.723957 735.399104 323.723957 735.399104 333.24525 744.946801 333.24525 754.494498 342.766543 764.042194 342.766543 773.589891 342.766543 802.232982 314.202664 792.685285 304.681371 802.232982 304.681371 811.780679 295.160078z"/>
      <path class="state" state-element title="virginia" region="south_atlantic" id="virginia" d="M706.756013,276.117493L744.946801 276.117493 744.946801 266.5962 773.589891 238.032321 783.137588 247.553614 792.685285 257.074907 802.232982 266.5962 802.232982 285.638786 811.780679 295.160078 687.66062 295.160078z"/>
      <path class="state" state-element title="west_virginia" region="south_atlantic" id="west_virginia" d="M735.399104,209.468443L735.399104 218.989736 735.399104 228.511028 744.946801 228.511028 744.946801 247.553614 754.494498 238.032321 773.589891 238.032321 744.946801 266.5962 744.946801 276.117493 706.756013 276.117493 697.208316 266.5962 697.208316 257.074907 735.399104 218.989736z"/>
      <path class="state" state-element title="maryland" region="south_atlantic" id="maryland" d="M744.946801,228.511028L744.946801 247.553614 754.494498 238.032321 773.589891 238.032321 802.232982 266.5962 802.232982 257.074907 811.780679 266.5962 811.780679 276.117493 821.328376 266.5962 821.328376 257.074907 811.780679 257.074907 811.780679 238.032321 802.232982 228.511028z"/>
      <path class="state" state-element title="maryland" region="south_atlantic" id="maryland" d="M821.328376,228.511028L802.232982 228.511028 811.780679 238.032321 811.780679 257.074907 821.328376 257.074907z"/>
      <path class="state" state-element title="delaware" region="south_atlantic" id="delaware" d="M830.876073,190.425857L821.328376 199.94715 821.328376 209.468443 830.876073 218.989736 821.328376 228.511028 830.876073 238.032321 840.423769 228.511028 840.423769 218.989736 830.876073 209.468443 840.423769 199.94715z"/>
    </g>
    <g class="region middle_atlantic">
      <path class="state" state-element title="pennsylvania" region="middle_atlantic" id="pennsylvania" d="M821.328376,180.904564L811.780679 171.383271 744.946801 171.383271 744.946801 161.861979 735.399104 171.383271 735.399104 228.511028 821.328376 228.511028 830.876073 218.989736 821.328376 209.468443 821.328376 199.94715 830.876073 190.425857z"/>
      <path class="state" state-element title="new_york" region="middle_atlantic" id="new_york" d="M754.494498,142.819703 L754.494498,152.340997 L744.946801,161.86229 L744.946801,171.383582 L811.780679,171.383582 L849.971466,209.46875 L859.519163,209.46875 L869.06686,199.947457 L840.423769,199.947456 L849.971466,190.426171 L849.971466,104.734532 C849.971466,104.734532 821.645389,104.866566 821.328376,104.734532 C821.114261,104.645355 802.232982,123.777117 802.232982,123.777117 L802.232982,133.29841 L792.685285,142.819703 L754.494498,142.819703 Z"/>
    </g>
    <g class="region pacific">
      <path class="state" state-element title="california" region="pacific" id="california" d="M76.3815749,179.861079L76.3815749 236.988836 162.310847 322.680471 162.310847 370.286936 133.667756 370.286936 105.024666 341.723057 85.9292718 341.723057 66.8338781 322.680471 66.8338781 313.159179 28.6430906 265.552714 38.1907875 265.552714 9.54769687 236.988836 9.54769687 227.467543 0 217.94625 0 179.861079z"/>
      <path class="state" state-element title="oregon" region="pacific" id="oregon" d="M9.54769687,85.0293799L9.49766531e-14 94.5506727 -6.78404665e-15 180.242308 124.120059 180.242308 124.671272 104.075402 134.125618 94.6472014 124.120059 85.0293799 66.8338781 85.0293799 57.2861812 94.5506727 47.7384843 94.5506727 47.7384843 85.0293799z"/>
      <polygon class="state" state-element title="washington" id="washington" points="9.54769687 28.6929229 9.54769687 85.82068 47.7384843 85.82068 47.7384843 95.3419729 57.2861812 95.3419729 66.8338781 85.82068 124.120059 85.82068 124.120059 9.65033719 28.9505823 9.65033719 28.9505823 19.3321404 1.69601166e-15 19.17163"></polygon>
    </g>
  </g>
</svg>
